<?xml version="1.0" encoding="UTF-8" standalone="no"?>
<svg width="76px" height="64px" viewBox="0 0 76 64" version="1.1" xmlns="http://www.w3.org/2000/svg" xmlns:xlink="http://www.w3.org/1999/xlink">
    <!-- Generator: Sketch 47.1 (45422) - http://www.bohemiancoding.com/sketch -->
    <title>001-line-chart</title>
    <desc>Created with Sketch.</desc>
    <defs></defs>
    <g id="Welcome" stroke="none" stroke-width="1" fill="none" fill-rule="evenodd">
        <g id="Desktop-HD-Copy" transform="translate(-1145.000000, -829.000000)" fill-rule="nonzero" fill="#F5A623">
            <g id="OfficeCard" transform="translate(1025.000000, 812.000000)">
                <g id="001-line-chart" transform="translate(120.000000, 17.000000)">
                    <path d="M5.08915663,50.3319133 L5.08915663,62.4996241 C5.08915663,63.2398651 5.69060241,63.8567325 6.44626506,63.8567325 L15.853494,63.8567325 C16.5937349,63.8567325 17.2106024,63.2552867 17.2106024,62.4996241 L17.2106024,41.0943229 L10.3787952,47.9261301 C8.92915663,49.360347 7.07855422,50.1931181 5.08915663,50.3319133 Z" id="Shape"></path>
                    <path d="M21.8987952,40.940106 L21.8987952,62.4996241 C21.8987952,63.2398651 22.500241,63.8567325 23.2559036,63.8567325 L32.6631325,63.8567325 C33.4033735,63.8567325 34.020241,63.2552867 34.020241,62.4996241 L34.020241,49.8075759 C31.8766265,49.7613108 29.8718072,48.9131181 28.3604819,47.4017928 L21.8987952,40.940106 Z" id="Shape"></path>
                    <path d="M38.7084337,48.4658892 L38.7084337,62.4996241 C38.7084337,63.2398651 39.3098795,63.8567325 40.0655422,63.8567325 L49.4727711,63.8567325 C50.213012,63.8567325 50.8298795,63.2552867 50.8298795,62.4996241 L50.8298795,36.606612 L40.0501205,47.3863711 C39.6337349,47.8027566 39.186506,48.1574554 38.7084337,48.4658892 Z" id="Shape"></path>
                    <path d="M66.7296386,20.6914313 L55.5180723,31.9029976 L55.5180723,62.4996241 C55.5180723,63.2398651 56.1195181,63.8567325 56.8751807,63.8567325 L66.2824096,63.8567325 C67.0226506,63.8567325 67.6395181,63.2552867 67.6395181,62.4996241 L67.6395181,21.5396241 C67.3310843,21.2774554 67.099759,21.0461301 66.9301205,20.8919133 L66.7296386,20.6914313 Z" id="Shape"></path>
                    <path d="M74.4250602,0.828298795 C73.9778313,0.350226506 73.2992771,0.103479518 72.4356627,0.103479518 C72.3585542,0.103479518 72.2660241,0.103479518 72.1889157,0.103479518 C67.8091566,0.303961446 63.4448193,0.51986506 59.0650602,0.720346988 C58.4790361,0.751190361 57.6771084,0.782033735 57.0448193,1.41432289 C56.8443373,1.61480482 56.6901205,1.84613012 56.566747,2.12372048 C55.9190361,3.52709398 56.8289157,4.43697349 57.2607229,4.86878072 L58.3556627,5.97914217 C59.1113253,6.75022651 59.8824096,7.52131084 60.653494,8.27697349 L34.1898795,34.7560096 L22.299759,22.8658892 C21.5903614,22.1564916 20.6342169,21.7555277 19.6163855,21.7555277 C18.5985542,21.7555277 17.6578313,22.1564916 16.9484337,22.8658892 L1.11036145,38.6885398 C-0.370120482,40.1690217 -0.370120482,42.5593831 1.11036145,44.0398651 L1.81975904,44.7492627 C2.52915663,45.4586602 3.4853012,45.8596241 4.50313253,45.8596241 C5.52096386,45.8596241 6.46168675,45.4586602 7.17108434,44.7492627 L19.6163855,32.3039614 L31.506506,44.1940819 C32.2159036,44.9034795 33.1720482,45.3044434 34.1898795,45.3044434 C35.2077108,45.3044434 36.1484337,44.9034795 36.873253,44.1940819 L66.7296386,14.3376964 L70.106988,17.6996241 C70.5079518,18.100588 71.0631325,18.6557687 71.9113253,18.6557687 C72.2660241,18.6557687 72.6207229,18.5632386 72.9908434,18.3627566 C73.2375904,18.2239614 73.453494,18.0697446 73.6385542,17.8846843 C74.3016867,17.2215518 74.4250602,16.373359 74.4559036,15.7102265 C74.5792771,12.8726361 74.7180723,10.0350458 74.8568675,7.18203373 L75.0573494,2.91022651 C75.1036145,2.01576867 74.9031325,1.32179277 74.4250602,0.828298795 Z" id="Shape"></path>
                </g>
            </g>
        </g>
    </g>
</svg>