<?xml version="1.0" encoding="UTF-8" standalone="no"?>
<svg width="64px" height="64px" viewBox="0 0 64 64" version="1.1" xmlns="http://www.w3.org/2000/svg" xmlns:xlink="http://www.w3.org/1999/xlink">
    <!-- Generator: Sketch 47.1 (45422) - http://www.bohemiancoding.com/sketch -->
    <title>005-building</title>
    <desc>Created with Sketch.</desc>
    <defs></defs>
    <g id="Welcome" stroke="none" stroke-width="1" fill="none" fill-rule="evenodd">
        <g id="Desktop-HD-Copy" transform="translate(-801.000000, -614.000000)" fill-rule="nonzero" fill="#F5A623">
            <g id="CityCard" transform="translate(669.000000, 597.000000)">
                <g id="005-building" transform="translate(132.000000, 17.000000)">
                    <path d="M0,63.507434 L31.753717,63.507434 L31.753717,0 L0,0 L0,63.507434 Z M19.8460731,7.93842925 L27.7845024,7.93842925 L27.7845024,15.8768585 L19.8460731,15.8768585 L19.8460731,7.93842925 Z M19.8460731,23.8152877 L27.7845024,23.8152877 L27.7845024,31.753717 L19.8460731,31.753717 L19.8460731,23.8152877 Z M19.8460731,39.6921462 L27.7845024,39.6921462 L27.7845024,47.6305755 L19.8460731,47.6305755 L19.8460731,39.6921462 Z M3.96921462,7.93842925 L11.9076439,7.93842925 L11.9076439,15.8768585 L3.96921462,15.8768585 L3.96921462,7.93842925 Z M3.96921462,23.8152877 L11.9076439,23.8152877 L11.9076439,31.753717 L3.96921462,31.753717 L3.96921462,23.8152877 Z M3.96921462,39.6921462 L11.9076439,39.6921462 L11.9076439,47.6305755 L3.96921462,47.6305755 L3.96921462,39.6921462 Z M35.7229316,19.8460731 L63.507434,19.8460731 L63.507434,23.8152877 L35.7229316,23.8152877 L35.7229316,19.8460731 Z M35.7229316,63.507434 L43.6613609,63.507434 L43.6613609,47.6305755 L55.5690047,47.6305755 L55.5690047,63.507434 L63.507434,63.507434 L63.507434,27.7845024 L35.7229316,27.7845024 L35.7229316,63.507434 Z" id="Shape"></path>
                </g>
            </g>
        </g>
    </g>
</svg>