<?xml version="1.0" encoding="UTF-8" standalone="no"?>
<svg width="79px" height="64px" viewBox="0 0 79 64" version="1.1" xmlns="http://www.w3.org/2000/svg" xmlns:xlink="http://www.w3.org/1999/xlink">
    <!-- Generator: Sketch 47.1 (45422) - http://www.bohemiancoding.com/sketch -->
    <title>006-college-graduation</title>
    <desc>Created with Sketch.</desc>
    <defs></defs>
    <g id="Welcome" stroke="none" stroke-width="1" fill="none" fill-rule="evenodd">
        <g id="Desktop-HD-Copy" transform="translate(-439.000000, -615.000000)" fill-rule="nonzero" fill="#F5A623">
            <g id="UniveristyCard" transform="translate(316.000000, 597.000000)">
                <g id="006-college-graduation" transform="translate(123.000000, 18.000000)">
                    <path d="M44.0547034,47.0871682 C42.6649052,47.9395229 40.8850398,48.409052 39.0429358,48.409052 C37.2008318,48.409052 35.4209664,47.9397187 34.0311682,47.0871682 L11.3411131,33.1711804 C11.3411131,33.1711804 9.29311315,31.915841 9.29311315,34.759633 C9.29311315,37.9889908 9.29311315,47.6770642 9.29311315,47.6770642 C9.29311315,47.8062385 9.29311315,48.4546544 9.29311315,48.6556575 C9.29311315,55.9759266 22.6123547,63.8674985 39.0423486,63.8674985 C55.4723425,63.8674985 68.7915841,55.9761223 68.7915841,48.6556575 C68.7915841,48.4546544 68.7915841,47.8062385 68.7915841,47.6770642 C68.7915841,47.6770642 68.7915841,37.4014434 68.7915841,33.9761713 C68.7915841,31.6935046 67.335633,32.8089052 67.335633,32.8089052 L44.0547034,47.0871682 Z" id="Shape"></path>
                    <path d="M76.7782752,22.1019205 C78.521737,21.0327095 78.521737,19.2829847 76.7782752,18.213578 L42.2127951,0.928685015 C40.4693333,-0.140525994 37.6163425,-0.140525994 35.8728807,0.928685015 L1.30759633,18.213578 C-0.435865443,19.282789 -0.435865443,21.0325138 1.30759633,22.1019205 L35.8728807,43.3011865 C37.6163425,44.3703976 40.4693333,44.3703976 42.2127951,43.3011865" id="Shape"></path>
                    <path d="M75.3487462,53.524159 C75.3487462,47.6709969 75.3487462,30.111315 75.3487462,30.111315 C75.3487462,30.111315 75.3649908,29.0023731 74.7069847,29.3685627 C74.1791315,29.6623364 72.8852355,30.3835596 72.4294067,30.7800856 C71.9031193,31.2374801 72.0217248,32.2642202 72.0217248,32.2642202 C72.0217248,32.2642202 72.0217248,48.2092232 72.0217248,53.524159 C72.0217248,53.8259572 71.7623976,53.9700061 71.6387034,54.0428135 C70.443841,54.7452477 69.6404159,56.0418838 69.6404159,57.528367 C69.6404159,59.7622997 71.4512049,61.5732844 73.6853333,61.5732844 C75.9192661,61.5732844 77.730055,59.7622997 77.730055,57.528367 C77.730055,56.036208 76.9207584,54.7354618 75.718263,54.034789 C75.5986789,53.9651131 75.3487462,53.8257615 75.3487462,53.524159 Z" id="Shape"></path>
                </g>
            </g>
        </g>
    </g>
</svg>