<?xml version="1.0" encoding="UTF-8" standalone="no"?>
<svg width="74px" height="64px" viewBox="0 0 74 64" version="1.1" xmlns="http://www.w3.org/2000/svg" xmlns:xlink="http://www.w3.org/1999/xlink">
    <!-- Generator: Sketch 47.1 (45422) - http://www.bohemiancoding.com/sketch -->
    <title>004-theatre-masks</title>
    <desc>Created with Sketch.</desc>
    <defs></defs>
    <g id="Welcome" stroke="none" stroke-width="1" fill="none" fill-rule="evenodd">
        <g id="Desktop-HD-Copy" transform="translate(-1147.000000, -620.000000)" fill-rule="nonzero" fill="#F5A623">
            <g id="ArtCard" transform="translate(1025.000000, 597.000000)">
                <g id="004-theatre-masks" transform="translate(122.000000, 23.000000)">
                    <path d="M72.3471484,21.2932639 C72.2188504,20.7836531 71.8806668,20.3532943 71.4177664,20.1047947 C70.9561116,19.8578522 70.410378,19.8159685 69.9152474,19.9898871 C65.5742908,21.5149828 58.876637,22.4963691 51.3438006,22.4963691 C49.51244,22.4963691 47.7474083,22.4264591 46.0360936,22.3163782 C45.1512423,26.3141688 43.7373174,29.9849863 41.9313362,33.2179713 C42.0191518,33.2143902 42.1030749,33.2000657 42.191669,33.2000657 C44.5324847,33.2000657 46.4295512,33.004816 46.4295512,34.5816047 C46.4295512,36.1583933 44.532329,38.9105722 42.191669,38.9105722 C40.8281914,38.9105722 39.6277331,38.4693143 38.8531184,37.7954384 C36.513704,40.6998934 33.7806764,42.9901061 30.7708115,44.5046141 C34.1643248,55.9270286 42.0982481,63.9398926 51.3438006,63.9398926 C63.6783142,63.9398926 73.6771502,49.6801305 73.6771502,32.0897586 C73.6769945,28.2953141 73.203195,24.6643562 72.3471484,21.2932639 Z M60.2440072,54.6398447 C60.204459,54.8076908 60.0795864,54.9445524 59.9154771,54.9984251 C59.7510563,55.0533877 59.5701313,55.018822 59.4380964,54.9071841 C57.6982884,53.4453031 54.7387151,52.4740374 51.3439563,52.4740374 C47.948886,52.4740374 44.9893128,53.4453031 43.2496604,54.9071841 C43.1174699,55.0175764 42.9363891,55.0522978 42.7722797,54.9984251 C42.6080147,54.9433068 42.4832978,54.8076908 42.4437497,54.6398447 C42.2997258,54.0270037 42.2111317,53.3951672 42.2111317,52.7379514 C42.2111317,47.6940027 46.300319,43.6051268 51.344112,43.6051268 C56.3879049,43.6051268 60.4767808,47.6941584 60.4767808,52.7379514 C60.4764694,53.3951672 60.3878753,54.0271594 60.2440072,54.6398447 Z M60.4957764,38.9104165 C58.1549607,38.9104165 56.2578942,36.1582376 56.2578942,34.581449 C56.2578942,33.0046603 58.1551164,33.1999099 60.4957764,33.1999099 C62.8364364,33.1999099 64.7336586,34.4783746 64.7336586,36.0551632 C64.7335029,37.6319519 62.8364364,38.9104165 60.4957764,38.9104165 Z" id="Shape"></path>
                    <path d="M44.6666993,12.2887374 C44.6666993,8.49476001 44.1928998,4.86364636 43.3368532,1.49270985 C43.2085552,0.98309899 42.8703716,0.552428764 42.4074712,0.304240644 C42.1340595,0.158036977 41.8305973,0.083767383 41.5247997,0.083767383 C41.316004,0.083767383 41.1062742,0.118177405 40.9049522,0.18933297 C36.5639956,1.71442873 29.8664975,2.6955036 22.3335054,2.6955036 C14.8003576,2.6955036 8.10285944,1.71442873 3.76190287,0.18933297 C3.56167079,0.118177405 3.35303084,0.083767383 3.14439089,0.083767383 C2.83874894,0.083767383 2.53388549,0.158815485 2.25922812,0.305486256 C1.7975733,0.553674376 1.45829983,0.9841889 1.32984613,1.49270985 C0.473799529,4.86380207 0,8.49476001 0,12.2887374 C0,29.8794207 9.99868037,44.1388714 22.3335054,44.1388714 C34.668019,44.1388714 44.6666993,29.8794207 44.6666993,12.2887374 Z M8.9433359,16.2472912 C8.9433359,14.6701911 10.8405581,13.3920379 13.1813738,13.3920379 C15.5220338,13.3920379 17.419256,16.1439054 17.419256,17.7210055 C17.419256,19.2977941 15.5220338,19.1025445 13.1813738,19.1025445 C10.8405581,19.1025445 8.9433359,17.8240798 8.9433359,16.2472912 Z M22.3335054,38.1175847 C17.2895567,38.1175847 13.2006808,34.0285531 13.2006808,28.9850715 C13.2006808,28.3278557 13.2892749,27.6957078 13.4331431,27.0828669 C13.4726912,26.9153321 13.5975638,26.7797161 13.7616731,26.7242864 C13.9260939,26.6704137 14.107019,26.7051351 14.2390538,26.8155275 C15.9788619,28.2774084 18.9384351,29.2486741 22.3333497,29.2486741 C25.7282642,29.2486741 28.6878375,28.2774084 30.4274898,26.8155275 C30.5596804,26.7038895 30.7406055,26.6693238 30.9048705,26.7242864 C31.0691355,26.7784705 31.1938524,26.9153321 31.2334006,27.0828669 C31.3772687,27.6957078 31.4660185,28.3278557 31.4660185,28.9850715 C31.4661742,34.0285531 27.3771426,38.1175847 22.3335054,38.1175847 Z M27.2474433,17.7210055 C27.2474433,16.1439054 29.1446655,13.3920379 31.4854812,13.3920379 C33.8261412,13.3920379 35.7233634,14.6701911 35.7233634,16.2472912 C35.7233634,17.8240798 33.8261412,19.1025445 31.4854812,19.1025445 C29.1446655,19.1025445 27.2474433,19.2977941 27.2474433,17.7210055 Z" id="Shape"></path>
                </g>
            </g>
        </g>
    </g>
</svg>