<?xml version="1.0" encoding="UTF-8" standalone="no"?>
<svg width="116px" height="64px" viewBox="0 0 116 64" version="1.1" xmlns="http://www.w3.org/2000/svg" xmlns:xlink="http://www.w3.org/1999/xlink">
    <!-- Generator: Sketch 47.1 (45422) - http://www.bohemiancoding.com/sketch -->
    <title>003-mountain-summit</title>
    <desc>Created with Sketch.</desc>
    <defs></defs>
    <g id="Welcome" stroke="none" stroke-width="1" fill="none" fill-rule="evenodd">
        <g id="Desktop-HD-Copy" transform="translate(-416.000000, -826.000000)" fill-rule="nonzero" fill="#F5A623">
            <g id="NatureCard" transform="translate(316.000000, 812.000000)">
                <g id="003-mountain-summit" transform="translate(100.000000, 14.000000)">
                    <path d="M115.688727,63.1869091 L0,63.1869091 L5.73963636,53.2290909 L23.6087273,22.2705455 C26.7723636,16.8014545 31.9316364,16.8014545 35.0836364,22.2705455 C35.0836364,22.2705455 39.2334545,29.4589091 39.7338182,30.2996364 C42.1105455,26.1905455 54.7752727,4.24 54.7752727,4.24 C57.9461818,-1.22909091 63.1025455,-1.22909091 66.2574545,4.24 L91.4225455,47.8298182 C92.7185455,45.5781818 93.9985455,43.3730909 94.976,41.6392727 C97.2654545,37.6930909 100.978909,37.6930909 103.277091,41.6392727 C105.550545,45.6014545 109.28,52.0625455 111.569455,55.9941818 L115.688727,63.1869091 Z" id="Shape"></path>
                </g>
            </g>
        </g>
    </g>
</svg>