<?xml version="1.0" encoding="UTF-8" standalone="no"?>
<svg width="85px" height="64px" viewBox="0 0 85 64" version="1.1" xmlns="http://www.w3.org/2000/svg" xmlns:xlink="http://www.w3.org/1999/xlink">
    <!-- Generator: Sketch 47.1 (45422) - http://www.bohemiancoding.com/sketch -->
    <title>002-photo-camera</title>
    <desc>Created with Sketch.</desc>
    <defs></defs>
    <g id="Welcome" stroke="none" stroke-width="1" fill="none" fill-rule="evenodd">
        <g id="Desktop-HD-Copy" transform="translate(-785.000000, -828.000000)" fill-rule="nonzero" fill="#F5A623">
            <g id="TourismCard" transform="translate(670.000000, 812.000000)">
                <g id="002-photo-camera" transform="translate(115.000000, 16.000000)">
                    <path d="M43.1498378,21.7980541 C34.6291892,21.7980541 27.692973,28.7325405 27.692973,37.2549189 C27.692973,45.779027 34.6274595,52.7135135 43.1498378,52.7135135 C51.6704865,52.7135135 58.6067027,45.779027 58.6067027,37.2549189 C58.6067027,28.7256216 51.6739459,21.7980541 43.1498378,21.7980541 Z M45.0075676,27.8244324 C38.9465946,27.8244324 34.0324324,32.7385946 34.0324324,38.7995676 C34.0324324,41.7608649 35.2172973,44.4367568 37.1269189,46.4103784 C34.1500541,44.4505946 32.1781622,41.0828108 32.1781622,37.2514595 C32.1781622,31.1887568 37.0923243,26.2763243 43.1532973,26.2763243 C46.2460541,26.2763243 49.0326486,27.5701622 51.0339459,29.6337297 C49.3007568,28.4972973 47.2337297,27.8244324 45.0075676,27.8244324 Z M11.1584865,53.4832432 L0,53.4832432 L0,16.3891892 L11.1584865,16.3891892 L11.1584865,53.4832432 Z M79.8114595,6.18205405 L57.5256216,6.18205405 L57.5256216,5.26010811 C57.5256216,2.53059459 55.3081081,0.314810811 52.5820541,0.314810811 L32.1781622,0.314810811 C29.4486486,0.314810811 27.2328649,2.53059459 27.2328649,5.26010811 L27.2328649,6.18205405 L22.1111351,6.18205405 C21.5576216,4.05621622 19.6410811,2.47697297 17.3405405,2.47697297 L9.92172973,2.47697297 C7.62118919,2.47697297 5.70464865,4.05621622 5.15113514,6.18205405 L4.9452973,6.18205405 C2.21578378,6.18205405 0,8.39610811 0,11.1273514 L0,12.6771892 L13.0127568,12.6771892 C14.0367568,12.6771892 14.867027,13.5074595 14.867027,14.5314595 L14.867027,55.3392432 C14.867027,56.3632432 14.0367568,57.1917838 13.0127568,57.1917838 L0,57.1917838 L0,58.7416216 C0,61.4711351 2.21578378,63.6869189 4.9452973,63.6869189 L9.92172973,63.6869189 L17.3405405,63.6869189 L32.1781622,63.6869189 L52.5803243,63.6869189 L79.8097297,63.6869189 C82.5427027,63.6869189 84.755027,61.4711351 84.755027,58.7416216 L84.755027,11.1290811 C84.7567568,8.39610811 82.5444324,6.18205405 79.8114595,6.18205405 Z M43.1498378,57.6518919 C31.9014054,57.6518919 22.7476757,48.4998919 22.7476757,37.2497297 C22.7476757,26.003027 31.9014054,16.8475676 43.1498378,16.8475676 C54.4,16.8475676 63.552,26.0012973 63.552,37.2497297 C63.552,48.4998919 54.4,57.6518919 43.1498378,57.6518919 Z" id="Shape"></path>
                </g>
            </g>
        </g>
    </g>
</svg>