<?xml version="1.0" encoding="UTF-8"?>
<svg width="297px" height="297px" viewBox="0 0 297 297" version="1.1" xmlns="http://www.w3.org/2000/svg" xmlns:xlink="http://www.w3.org/1999/xlink">
    <!-- Generator: Sketch 47.1 (45422) - http://www.bohemiancoding.com/sketch -->
    <title>dragonfly</title>
    <desc>Created with Sketch.</desc>
    <defs></defs>
    <g id="Page-1" stroke="none" stroke-width="1" fill="none" fill-rule="evenodd">
        <g id="dragonfly" fill-rule="nonzero" fill="#FFFFFF">
            <path d="M72.723,85.605 C56.861,69.743 39.949,56.986 25.103,49.684 C15.88,45.148 9.639,43.788 5.796,43.788 C3.323,43.788 1.845,44.351 1.204,44.993 C-0.434,46.63 -1.56,53.733 5.895,68.891 C13.198,83.738 25.955,100.649 41.816,116.51 C57.678,132.372 74.59,145.129 89.436,152.431 C104.595,159.887 111.697,158.763 113.333,157.122 C113.334,157.122 113.334,157.122 113.334,157.122 C114.972,155.484 116.098,148.382 108.643,133.224 C101.342,118.379 88.585,101.466 72.723,85.605 Z" id="Shape"></path>
            <path d="M91.021,170.17 C76.175,177.471 57.678,190.986 41.817,206.848 C25.955,222.71 13.198,239.621 5.896,254.468 C-1.559,269.627 -0.433,276.73 1.205,278.368 C2.844,280.007 9.947,281.13 25.104,273.675 C39.95,266.374 56.862,253.617 72.724,237.755 C88.585,221.893 101.342,204.982 108.643,190.136 C112.275,182.751 113.861,177.292 114.353,173.431 C114.352,173.43 104.302,175.453 91.021,170.17 Z" id="Shape"></path>
            <path d="M182.647,173.431 C183.139,177.291 184.725,182.751 188.357,190.135 C195.658,204.981 208.415,221.892 224.277,237.755 C240.138,253.616 257.05,266.373 271.896,273.674 C287.055,281.131 294.159,280.004 295.796,278.366 C297.433,276.729 298.559,269.626 291.104,254.468 C283.802,239.621 271.045,222.71 255.183,206.849 C239.322,190.986 222.411,178.228 207.565,170.927 C207.565,170.927 197.72,176.154 182.647,173.431 Z" id="Shape"></path>
            <path d="M183.666,157.123 C185.304,158.76 192.403,159.891 207.563,152.432 C222.409,145.13 239.321,132.373 255.182,116.511 C271.044,100.65 283.802,83.739 291.104,68.892 C298.559,53.733 297.433,46.63 295.795,44.992 C295.154,44.351 293.674,43.788 291.203,43.788 C287.362,43.788 281.121,45.147 271.896,49.684 C257.05,56.987 240.138,69.743 224.275,85.605 C208.414,101.466 195.657,118.378 188.355,133.224 C180.9,148.383 182.026,155.485 183.664,157.122 C183.664,157.123 183.664,157.123 183.666,157.123 Z" id="Shape"></path>
            <path d="M148.5,36.067 C135.201,36.067 124.382,46.886 124.382,60.185 C124.382,73.484 135.201,84.304 148.5,84.304 C161.799,84.304 172.618,73.484 172.618,60.185 C172.617,46.886 161.798,36.067 148.5,36.067 Z" id="Shape"></path>
            <path d="M210.34,16.677 C214.123,13.048 214.248,7.04 210.62,3.257 C206.989,-0.527 200.981,-0.651 197.2,2.977 L171.4,27.724 C176.625,31.421 180.919,36.343 183.865,42.071 L210.34,16.677 Z" id="Shape"></path>
            <path d="M99.799,2.978 C96.016,-0.65 90.01,-0.525 86.379,3.258 C82.751,7.041 82.877,13.049 86.659,16.678 L113.134,42.073 C116.08,36.344 120.374,31.423 125.599,27.726 L99.799,2.978 Z" id="Shape"></path>
            <path d="M148.5,95.469 C137.818,95.469 129.128,108.292 129.128,124.053 C129.128,132.741 131.556,175.442 135.363,216.338 C139.967,265.795 144.082,286.585 146.691,295.319 C147.227,297.113 149.773,297.113 150.309,295.319 C152.918,286.585 157.033,265.795 161.637,216.338 C165.444,175.442 167.872,132.742 167.872,124.053 C167.872,108.292 159.181,95.469 148.5,95.469 Z" id="Shape"></path>
        </g>
    </g>
</svg>